<svg xmlns="http://www.w3.org/2000/svg" xmlns:xlink="http://www.w3.org/1999/xlink" viewBox="0 0 432 140"><defs><style>.a{fill:#fff;}.b{fill:url(#a);}.c,.d,.f{fill:#0038a5;}.c{opacity:0.3;}.d{opacity:0.2;}.e{fill:url(#b);}</style><linearGradient id="a" x1="216" x2="216" y2="140" gradientUnits="userSpaceOnUse"><stop offset="0.4" stop-color="#38c1ff" stop-opacity="0"/><stop offset="1" stop-color="#38c1ff" stop-opacity="0.5"/></linearGradient><linearGradient id="b" x1="216" x2="216" y2="140" gradientUnits="userSpaceOnUse"><stop offset="0.7" stop-color="#0038a5" stop-opacity="0"/><stop offset="1" stop-color="#0038a5"/></linearGradient></defs><title>Login_Logo-Header</title><rect class="a" width="432" height="140"/><rect class="b" width="432" height="140"/><polygon class="c" points="0 140 432 140 432 110 0 140"/><polygon class="d" points="0 140 432 140 432 55 0 140"/><polygon class="c" points="432 140 0 140 0 77 432 140"/><polygon class="d" points="432 140 0 140 0 55 432 140"/><rect class="e" width="432" height="140"/><path class="f" d="M341.878,53.2342v-4.21h-2.3218c-5.9895,0-9.8072,4.3338-9.8072,10.52V70.0725h4.173V60.0054c0-3.9285,2.0576-6.7712,5.6768-6.7712Z"/><polygon class="f" points="85.153 41.706 89.559 41.706 96.977 63.118 104.396 41.706 109.033 41.706 99.063 70.073 94.892 70.073 85.153 41.706"/><rect class="f" x="128.5093" y="41.706" width="4.1736" height="28.3658"/><path class="f" d="M144.877,66.1244a6.5427,6.5427,0,1,0-6.5409-6.5437A6.5437,6.5437,0,0,0,144.877,66.1244Zm-10.5749-6.63A10.5764,10.5764,0,1,1,144.877,70.0726,10.5766,10.5766,0,0,1,134.3021,59.4943Z"/><path class="f" d="M211.8524,49.0245c-5.9895,0-9.8072,4.3338-9.8072,10.52V70.0726h4.173V60.0056c0-3.9286,2.0576-6.7713,5.6767-6.7713s5.1271,3.3936,5.1271,6.7713c0,.3032-.0369,7.3733-.0508,10.067h4.1824V59.5443C221.1536,54.2252,217.6437,49.0245,211.8524,49.0245Z"/><path class="f" d="M240.0709,62.27a6.5385,6.5385,0,0,1-10.0532,2.4166l14.1524-8.45a10.5751,10.5751,0,1,0-.3237,7.39C242.6954,63.2207,241.0708,62.633,240.0709,62.27Zm-12.5062-2.6892a6.54,6.54,0,0,1,10.95-4.8315l-10.7538,6.4237A6.5625,6.5625,0,0,1,227.5647,59.5807Z"/><path class="f" d="M122.946,62.27a6.5381,6.5381,0,0,1-10.0528,2.4166l14.152-8.45a10.5758,10.5758,0,1,0-.3242,7.39C125.57,63.2207,123.9461,62.633,122.946,62.27ZM110.44,59.5807a6.54,6.54,0,0,1,10.95-4.8315l-10.7543,6.4237A6.5525,6.5525,0,0,1,110.44,59.5807Z"/><path class="f" d="M195.1806,49.0245h-.009V59.5152c-.1441,3.7067-2.18,6.3468-5.6682,6.3468-3.6195,0-5.1262-3.3924-5.1262-6.7708,0-.3034.0368-7.3738.0507-10.0667h-4.183V59.5533c0,5.3186,3.51,10.5193,9.3019,10.5193a9.8486,9.8486,0,0,0,5.6248-1.6245v.2742c0,3.8672-1.566,7.5781-8.2391,7.5781h-6.4882V80.294h6.4882c10.3728,0,12.4215-5.4463,12.4215-12.1881V49.0245Z"/><path class="f" d="M177.93,59.7047c.0012-.07.0053-.14.0053-.21s-.0041-.1412-.0053-.212V41.706h-4.3946V50.91a10.5783,10.5783,0,1,0,4.3917,8.9022h.0029Zm-10.5724,6.42A6.5427,6.5427,0,1,1,173.9,59.5807,6.5424,6.5424,0,0,1,167.3573,66.1244Z"/><path class="f" d="M303.7167,59.8015c.0012-.07.0053-.14.0053-.21s-.0041-.1412-.0053-.212V41.706h-4.3946v9.301a10.5783,10.5783,0,1,0,4.3917,8.9022h.0029Zm-10.5724,6.42a6.5427,6.5427,0,1,1,6.5425-6.5437A6.5424,6.5424,0,0,1,293.1443,66.2212Z"/><path class="f" d="M259.6543,58.6043V41.706h-4.18V57.9883c0,6.7377,2.0474,12.1811,12.4149,12.1811h5.3485V66.1782h-5.3485C261.2191,66.1782,259.6543,62.4682,259.6543,58.6043Z"/><path class="f" d="M327.3406,59.2743a10.6222,10.6222,0,1,0-10.6655,10.8951,8.2,8.2,0,0,0,6.0559-2.3756l-2.0856-3.09a6.5543,6.5543,0,1,1,2.5483-5.1981V70.0725h4.1469V59.2743Z"/><path class="f" d="M280.0117,46.6362a2.767,2.767,0,1,1,.8022-1.9481A2.6526,2.6526,0,0,1,280.0117,46.6362Zm-4.0111,23.5332V49.3105h4.1256V70.1694Z"/><path class="f" d="M341.9051,44.1772a2.4443,2.4443,0,0,1,.3286-1.2326,2.4106,2.4106,0,0,1,.9037-.9069,2.4772,2.4772,0,0,1,2.4712-.0031,2.41,2.41,0,0,1,.9069.9035,2.4722,2.4722,0,1,1-4.61,1.2391Zm.345,0a2.1237,2.1237,0,0,0,3.1876,1.84,2.1387,2.1387,0,0,0,.777-.7742,2.1165,2.1165,0,0,0,.0018-2.1277,2.1438,2.1438,0,0,0-.7738-.7773,2.1172,2.1172,0,0,0-2.1279-.0013,2.1353,2.1353,0,0,0-.777.7738A2.0608,2.0608,0,0,0,342.25,44.1772Zm3.1284-.5981a.8.8,0,0,1-.1395.4649.83.83,0,0,1-.3928.3l.7821,1.2983h-.5521l-.68-1.1633h-.4436v1.1633h-.4864V42.7146h.8577a1.2318,1.2318,0,0,1,.8.2138A.8014.8014,0,0,1,345.3785,43.5791Zm-1.4261.496h.3549a.6258.6258,0,0,0,.4221-.1363.4358.4358,0,0,0,.1595-.3466.4157.4157,0,0,0-.1413-.3536.748.748,0,0,0-.4469-.1064h-.3483Z"/></svg>